<svg xmlns="http://www.w3.org/2000/svg" height="1024" preserveAspectRatio="none" style="display: block;" version="1.1" viewBox="0 0 2048 2048" width="1024">
<path d="M 0 0 L 2048 0 L 2048 2048 L 0 2048 L 0 0 z" fill="rgb(46,156,149)" transform="translate(0,0)"></path>
<path d="M 962.065 297.816 C 984.794 278.525 1009.64 278.05 1031.54 299.578 C 1056.77 284.522 1077.4 288.198 1095.92 310.866 C 1123.31 300.274 1140.83 304.006 1157.8 328.858 C 1189.36 319.644 1205.91 326.159 1222.3 352.637 C 1222.98 353.751 1231.45 352.711 1233.04 353.193 C 1256.13 356.076 1272.52 369.766 1276.81 393.13 C 1303.69 399.733 1323.79 417.111 1319.34 447.106 C 1344.57 455.832 1360.72 477.404 1350.52 504.371 C 1375.42 520.095 1381.36 541.51 1369.63 568.571 C 1386.67 591.093 1387.87 608.55 1371.46 632.113 C 1385.86 655.726 1382.78 670.604 1367.11 691.951 C 1376.56 715.201 1372.56 729.034 1358.23 748.632 L 1363.93 761.686 C 1357.82 776.918 1351.21 789.002 1343.58 803.488 C 1365.37 807.608 1382.12 816.331 1394.96 835.059 C 1406.75 852.065 1411.21 873.091 1407.36 893.42 C 1403.3 913.707 1391.19 931.483 1373.79 942.688 C 1353.24 956.085 1328.62 957.03 1305.77 949.362 C 1283.75 1045.94 1218.13 1159.68 1126.92 1205.65 C 1188.32 1225.4 1236.39 1272.18 1164.29 1320.75 C 1189.27 1326.64 1214.07 1331.44 1238.95 1337.17 C 1268.48 1344.08 1297.85 1351.65 1327.04 1359.86 C 1295.05 1323.96 1263.31 1287.83 1231.82 1251.49 C 1224.59 1243.2 1191.48 1207.5 1188.49 1199.88 C 1191.11 1197.17 1198.91 1197.12 1202.74 1197.13 C 1261.81 1197.27 1320.97 1197.13 1380.04 1197.18 L 1446.77 1197.25 C 1457.94 1197.26 1474.08 1196.85 1484.82 1197.72 C 1488.38 1192.96 1489.34 1186.68 1492.51 1182.14 C 1511.64 1154.76 1535.72 1147.77 1567.6 1151.36 C 1576.15 1136.9 1586.97 1121.98 1593.99 1106.78 C 1596.49 1101.37 1590.19 1089.99 1595.08 1083.69 C 1601.8 1073.71 1613.46 1068.87 1624.08 1076.27 C 1629.07 1079.79 1632.42 1085.2 1633.34 1091.24 C 1635.75 1106.92 1622.37 1115.69 1607.91 1113.3 C 1597.85 1130.31 1588.57 1145.21 1577.91 1161.87 C 1594.85 1180.4 1588.42 1193.03 1592.6 1197.97 C 1600.92 1197.02 1644.19 1196.11 1650.49 1198.62 C 1650.99 1201.97 1650.61 1203.72 1648.32 1206.45 C 1583.46 1283.75 1522.73 1366.39 1457.66 1443.27 C 1507.96 1482.1 1547.89 1575.3 1560.58 1636.53 C 1546.76 1641.61 1528.26 1645.51 1513.7 1649.01 C 1492.9 1654.01 1471.13 1659.55 1449.99 1662.4 C 1453.08 1672.68 1454.03 1674.6 1461.36 1682.55 C 1488.12 1684.85 1528.69 1690.44 1549.86 1709.45 C 1557.15 1715.99 1554.9 1729.99 1546.85 1734.95 C 1502.25 1762.83 1434.28 1760.96 1383.49 1757.13 C 1364.11 1755.67 1315.68 1746.54 1305.19 1731.41 C 1279.85 1694.88 1381.51 1682.93 1395.02 1682.85 C 1397.53 1679.09 1401.09 1674.07 1403.38 1670.31 C 1372.92 1674.03 1340.71 1681.43 1309.85 1686.06 C 1252.2 1694.16 1194.31 1700.54 1136.28 1705.19 C 943.321 1718.34 749.475 1705.98 559.751 1668.44 C 523.899 1661.27 466.875 1649.38 433.14 1635.94 C 463.004 1460.4 589.375 1366.3 754.903 1332.62 C 774.382 1328.66 793.854 1323.47 813.736 1321.49 C 798.765 1310.32 782.021 1297.15 779.597 1277.27 C 775.3 1242.03 814.009 1220.68 841.188 1209.9 C 837.461 1202.32 835.036 1200.33 835.444 1193.01 C 770.726 1150.97 720.598 1082.19 693.813 1010.27 C 687.448 993.183 681.53 970.629 677.089 952.845 C 653.17 956.064 633.127 955.033 613.009 939.87 C 596.73 927.561 586.008 909.288 583.204 889.072 C 577.448 844.61 604.741 812.918 646.596 802.529 C 640.27 789.658 634.137 776.693 628.2 763.638 C 630.267 757.821 632.066 752.471 634.724 746.886 C 619.092 726.832 615.469 715.131 624.964 690.812 C 608.152 671.709 603.773 650.935 621.392 630.456 C 601.484 607.927 605.663 588.972 623.002 566.479 C 608.339 541.318 618.405 519.68 640.265 503.57 C 631.404 474.41 646.119 455.496 673.059 445.845 C 671.817 414.065 685.458 400.61 714.802 393.192 C 722.755 363.8 738.237 352.351 768.632 355.278 C 783.138 328.914 802.295 317.021 832.507 328.228 C 849.178 302.74 868.936 298.368 896.476 309.265 C 916.969 287.043 935.518 283.983 962.065 297.816 z" fill="rgb(22,24,29)" transform="translate(0,0)"></path>
<path d="M 835.444 1193.01 C 841.58 1196.87 848.705 1201.29 854.591 1205.41 C 850.142 1207.02 845.563 1208.24 841.188 1209.9 C 837.461 1202.32 835.036 1200.33 835.444 1193.01 z" fill="rgb(177,220,213)" transform="translate(0,0)"></path>
<path d="M 649.738 808.595 C 657.181 824.672 664.467 840.82 671.597 857.038 C 675.357 865.718 679 875.693 683.324 883.932 C 686.15 885.318 686.143 884.885 689.552 884.706 C 691.896 882.179 689.992 864.988 690.02 859.081 C 690.508 755.429 698.779 635.832 775.628 557.732 C 812.983 519.769 868.025 502.108 917.302 524.45 C 950.656 539.572 965.138 557.08 1006.88 553.096 C 1048.98 549.778 1075.65 510.667 1120.71 515.004 C 1285.84 530.899 1306.15 751.013 1301.32 879.484 C 1301.2 882.671 1302.02 883.752 1303.97 885.739 L 1306.15 885.658 C 1310.66 878.72 1316.28 863.334 1319.82 855.275 C 1326.66 839.726 1333.22 824.345 1340.92 809.149 C 1354.76 811.427 1364.1 814.448 1375.44 823.214 C 1390.36 834.636 1400.07 851.577 1402.37 870.227 C 1404.53 889.129 1399.07 908.113 1387.19 922.972 C 1376.13 937.03 1359.85 946.014 1342.06 947.877 C 1330.4 949.03 1313.15 947.419 1303.98 939.803 L 1303.08 938.98 C 1298.26 943.406 1297.22 957.326 1294.57 964.545 C 1293.5 969.175 1292.83 972.73 1291.02 977.163 C 1286.22 995.993 1278.83 1014.54 1270.81 1032.23 C 1269.61 1035.2 1268.41 1038.2 1266.92 1041.05 C 1254.5 1068.72 1233.31 1100.3 1214.38 1123.94 C 1167.1 1183 1094.55 1226.37 1018.75 1234.04 C 946.807 1241.33 868.277 1214.57 812.856 1168.89 C 754.183 1120.52 709.943 1049.62 689.944 976.542 C 687.451 967.433 681.54 948.859 680.729 940.166 L 679.329 940.54 C 677.495 940.98 676.996 941.645 675.829 943.12 L 675.603 944.5 C 674.121 946.365 673.091 947.273 670.248 947.644 C 652.029 950.021 634.587 946.98 619.561 936.923 C 603.989 926.481 593.23 910.254 589.674 891.846 C 586.03 873.191 590.196 853.858 601.199 838.359 C 613.889 820.229 628.506 812.477 649.738 808.595 z" fill="rgb(242,213,190)" transform="translate(0,0)"></path>
<path d="M 1253.84 1021.73 C 1239.89 1027.94 1246.03 1017.68 1236.98 1004.11 C 1236.17 1002.89 1243.55 998.252 1245.4 1003.91 C 1246.67 1007.77 1251.08 1015.28 1253.03 1020.06 C 1256.48 1018.98 1258.89 1017.42 1262.27 1016.05 C 1266.31 1022.85 1267.41 1025.35 1270.81 1032.23 C 1269.61 1035.2 1268.41 1038.2 1266.92 1041.05 C 1262.79 1035.5 1258.06 1023.62 1253.84 1021.73 z" fill="rgb(110,110,114)" transform="translate(0,0)"></path>
<path d="M 675.829 943.12 C 671.026 930.249 679.643 930.613 685.144 917.424 C 685.469 916.645 690.506 920.068 690.688 921.586 C 691.167 925.608 680.118 937.571 680.729 940.166 L 679.329 940.54 C 677.495 940.98 676.996 941.645 675.829 943.12 z" fill="rgb(110,110,114)" transform="translate(0,0)"></path>
<path d="M 1303.08 938.98 C 1302.9 938.384 1302.72 937.788 1302.54 937.192 C 1299.93 932.529 1296.52 927.555 1293.14 923.4 C 1292.77 922.915 1290.74 920.411 1290.88 919.61 C 1291.18 917.905 1294.35 915.845 1295.55 914.966 C 1297 913.911 1297.94 916.161 1298.28 916.929 C 1301.05 923.064 1306.02 928.423 1308.54 934.46 C 1308.74 934.975 1305.67 938.22 1305.5 938.172 C 1305.49 938.167 1303.99 939.791 1303.98 939.803 L 1303.08 938.98 z" fill="rgb(110,110,114)" transform="translate(0,0)"></path>
<path d="M 803.752 880.364 C 834.42 875.807 862.992 896.93 867.626 927.586 C 872.261 958.243 851.209 986.867 820.564 991.578 C 789.81 996.305 761.063 975.163 756.412 944.398 C 751.762 913.633 772.976 884.938 803.752 880.364 z" fill="rgb(228,106,82)" transform="translate(0,0)"></path>
<path d="M 1167.89 881.084 C 1198.38 874.48 1228.4 894.005 1234.73 924.551 C 1241.06 955.098 1221.26 984.942 1190.66 990.993 C 1160.45 996.967 1131.06 977.478 1124.82 947.32 C 1118.57 917.163 1137.79 887.604 1167.89 881.084 z" fill="rgb(228,106,82)" transform="translate(0,0)"></path>
<path d="M 846.699 702.427 C 866.739 701.977 893.477 707 910.108 719.645 C 923.693 729.974 908.458 750.311 897.416 748.521 C 880.149 745.721 869.171 739.577 850.474 738.416 C 828.554 737.311 821.113 745.635 800.893 748.783 C 796.737 749.181 791.742 748.14 788.719 744.927 C 758.763 713.084 831.662 703.11 846.699 702.427 z" fill="rgb(22,24,29)" transform="translate(0,0)"></path>
<path d="M 1127.74 703.37 C 1148.21 699.815 1236.25 709.59 1200.05 746.559 C 1193.48 753.261 1168.59 741.872 1159.33 739.766 L 1157.89 739.445 C 1144.15 737.188 1131.51 736.64 1118.07 741.431 C 1107.8 745.093 1093.37 752.842 1083.08 746.133 C 1076.3 741.71 1073.56 727.302 1079.16 721.365 C 1089.31 710.617 1113.56 705.073 1127.74 703.37 z" fill="rgb(22,24,29)" transform="translate(0,0)"></path>
<path d="M 1132.38 788.106 C 1145.43 784.968 1158.55 793.032 1161.65 806.097 C 1164.74 819.162 1156.64 832.257 1143.56 835.31 C 1130.55 838.349 1117.52 830.288 1114.44 817.283 C 1111.36 804.278 1119.38 791.231 1132.38 788.106 z" fill="rgb(22,24,29)" transform="translate(0,0)"></path>
<path d="M 849.754 788.219 C 862.898 785.784 875.511 794.518 877.854 807.679 C 880.197 820.84 871.374 833.392 858.197 835.642 C 845.15 837.871 832.75 829.154 830.43 816.123 C 828.11 803.092 836.739 790.631 849.754 788.219 z" fill="rgb(22,24,29)" transform="translate(0,0)"></path>
<path d="M 982.266 789.358 C 985.092 789.796 986.385 789.628 988.449 791.498 C 985.772 819.548 982.254 870.257 977.091 896.743 C 973.329 900.347 968.564 900.071 964.448 902.706 C 958.383 906.588 954.755 914.142 952.552 920.965 C 950.069 928.654 954.272 941.457 959.029 947.773 C 980.88 976.786 1033.98 965.981 1039.04 928.764 C 1039.62 924.502 1039.03 923.266 1042.97 921.841 L 1045.12 922.986 L 1045.6 925.276 C 1043.02 944.964 1033.98 959.16 1014.96 966.846 C 1001.86 972.08 987.221 971.894 974.257 966.33 C 939.797 951.507 934.941 905.064 971.782 892.85 C 976.424 862.977 979.83 819.859 982.266 789.358 z" fill="rgb(22,24,29)" transform="translate(0,0)"></path>
<path d="M 896.984 1038.24 C 899.491 1038.98 909.715 1048.56 912.621 1050.87 C 965.149 1092.63 1043.78 1086.23 1089.28 1038.76 C 1091.33 1040.61 1091.7 1040.95 1093.37 1043.14 L 1092.5 1045.14 C 1075.69 1059.27 1062.77 1069.22 1041.67 1076.74 C 1006.22 1089.13 967.306 1087.02 933.392 1070.89 C 924.491 1066.62 897.961 1050.83 894.617 1041.43 L 896.984 1038.24 z" fill="rgb(22,24,29)" transform="translate(0,0)"></path>
<path d="M 894.406 1147.41 C 895.232 1147.73 901.161 1149.7 900.878 1150.61 C 896.757 1163.84 888.954 1176.88 884.148 1189.83 C 882.651 1189.37 878.19 1188.37 877.4 1186.73 C 877.584 1184.46 892.293 1152.45 894.406 1147.41 z" fill="rgb(110,110,114)" transform="translate(0,0)"></path>
<path d="M 715.698 950.691 C 717.376 951.887 720.668 953.948 721.045 956.175 C 721.118 956.605 704.115 972.862 701.658 976.437 C 698.574 974.009 697.144 972.734 694.287 969.992 C 696.445 967.968 698.7 965.77 700.964 963.882 C 706.001 959.627 710.914 955.229 715.698 950.691 z" fill="rgb(110,110,114)" transform="translate(0,0)"></path>
<path d="M 1291.44 968.193 C 1290.79 968.572 1285.25 972.321 1284.58 971.393 C 1283 969.135 1269.75 952.654 1270.43 951.102 C 1275.23 940.178 1280.54 951.29 1280.44 951.16 C 1284.1 955.997 1288.09 962.034 1291.9 966.346 C 1291.64 966.957 1291.57 967.528 1291.44 968.193 z" fill="rgb(110,110,114)" transform="translate(0,0)"></path>
<path d="M 1261.51 974.935 C 1263.84 977.837 1270.98 994.996 1272.51 999.385 C 1272.84 1000.34 1267.86 1003.5 1266.83 1004.26 C 1264.26 999.376 1261.86 994.222 1259.39 989.259 C 1253.61 977.666 1252.64 980.835 1261.51 974.935 z" fill="rgb(110,110,114)" transform="translate(0,0)"></path>
<path d="M 1125.56 1114.56 C 1131.57 1116.66 1130.87 1135.59 1132.83 1141.89 C 1133 1142.44 1130.29 1143.42 1129.8 1143.62 L 1128.16 1144.33 C 1124.58 1141.45 1125.08 1142.02 1124.19 1137.01 L 1123.06 1130.99 C 1121.73 1123.82 1117.43 1117.84 1124.04 1115.18 L 1125.56 1114.56 z" fill="rgb(110,110,114)" transform="translate(0,0)"></path>
<path d="M 777.072 1071.91 C 778.912 1073.46 781.286 1076.12 783.145 1077.93 C 777.022 1083.25 769.635 1090.12 763.618 1095.69 C 760.719 1095.79 757.895 1091.16 758.111 1090.89 C 762.661 1085.26 772.051 1077.12 777.072 1071.91 z" fill="rgb(110,110,114)" transform="translate(0,0)"></path>
<path d="M 1026.75 1190.96 C 1027.39 1190.96 1034.25 1190.7 1034.4 1191.55 C 1035.73 1199.02 1036.15 1207.42 1037.2 1215.14 C 1035.91 1215.24 1028.25 1216.22 1027.95 1215.12 C 1026.38 1209.42 1026.82 1196.63 1026.75 1190.96 z" fill="rgb(110,110,114)" transform="translate(0,0)"></path>
<path d="M 751.696 1039.76 C 754.322 1042.45 755.961 1044.96 758.072 1047.98 C 752.333 1052.67 744.868 1058.76 738.988 1063.08 C 739.003 1063.09 736.353 1061.41 736.37 1061.41 C 736.149 1061.43 734.33 1059.8 734.512 1059.45 C 736.6 1055.38 748.959 1042.9 751.696 1039.76 z" fill="rgb(110,110,114)" transform="translate(0,0)"></path>
<path d="M 1207.47 1027.27 C 1207.85 1027.31 1211.32 1027.58 1211.51 1027.95 C 1215.03 1034.74 1217.85 1043.12 1220.03 1050.51 C 1220.33 1051.52 1217.72 1053.98 1217.21 1054.54 C 1216.77 1054.45 1213.39 1054 1213.07 1053.42 C 1209.45 1046.89 1207.42 1038.23 1205.11 1031.01 C 1204.78 1029.99 1207.01 1027.8 1207.47 1027.27 z" fill="rgb(110,110,114)" transform="translate(0,0)"></path>
<path d="M 832.927 1105.78 C 835.282 1107.51 837.591 1109.31 839.847 1111.17 C 834.82 1117.09 830.045 1122.85 824.76 1128.58 C 821.663 1126.22 820.086 1124.49 817.401 1121.73 C 823.934 1115.74 827.111 1112.75 832.927 1105.78 z" fill="rgb(110,110,114)" transform="translate(0,0)"></path>
<path d="M 984.503 1190.66 C 985.002 1190.69 991.585 1190.8 991.64 1191.65 C 992.102 1198.79 990.944 1209.87 990.395 1217.04 C 980.935 1216.23 981.719 1218.09 982.897 1208 C 983.553 1202.38 983.977 1196.3 984.503 1190.66 z" fill="rgb(110,110,114)" transform="translate(0,0)"></path>
<path d="M 825.114 1132.52 C 827.435 1134.73 829.658 1137.03 831.908 1139.32 C 827.418 1145.92 823.78 1151.6 819.633 1158.49 C 817.391 1156.4 815.069 1154.46 812.665 1152.57 C 817.142 1145.87 821.198 1139.57 825.114 1132.52 z" fill="rgb(110,110,114)" transform="translate(0,0)"></path>
<path d="M 1053.08 1153.99 C 1054.53 1154.01 1060.84 1153.7 1061.07 1154.59 C 1062.16 1158.85 1061.45 1174.2 1061.42 1178.18 C 1059.73 1178.37 1053.85 1179.37 1053.6 1178.45 C 1052.87 1175.73 1053.14 1157.01 1053.08 1153.99 z" fill="rgb(110,110,114)" transform="translate(0,0)"></path>
<path d="M 1213.11 1066.37 C 1224.37 1067.21 1218.87 1075.24 1225.19 1084.46 C 1226.81 1086.83 1227.29 1088.12 1225.54 1090 L 1224.61 1091.04 C 1220.94 1091.04 1217.56 1091.74 1217.23 1087.48 C 1216.62 1079.48 1207.5 1072.3 1213.11 1066.37 z" fill="rgb(110,110,114)" transform="translate(0,0)"></path>
<path d="M 819.602 1069.53 C 820.55 1070.19 825.366 1073.93 824.885 1075.01 C 822.205 1081 814.957 1089.08 810.723 1094.12 C 802.141 1089.2 804.921 1088.73 810.176 1081.87 C 813.32 1077.76 816.529 1073.69 819.602 1069.53 z" fill="rgb(110,110,114)" transform="translate(0,0)"></path>
<path d="M 867.814 1124.49 C 870.456 1125.89 872.143 1127.8 874.343 1129.9 C 870.008 1135.76 865.608 1141.2 861.777 1147.49 L 859.988 1150.48 C 857.985 1149.59 853.961 1145.83 854.452 1144.88 C 856.214 1141.49 865.805 1127.6 867.814 1124.49 z" fill="rgb(110,110,114)" transform="translate(0,0)"></path>
<path d="M 946.738 1189.54 C 957.967 1191.98 955.042 1190.29 952.255 1202 C 951.265 1206.16 949.994 1210.5 948.795 1214.6 C 938.558 1212.48 940.631 1211.95 943.206 1202.93 C 944.437 1198.62 945.742 1193.92 946.738 1189.54 z" fill="rgb(110,110,114)" transform="translate(0,0)"></path>
<path d="M 930.929 1156.17 C 932.952 1156.71 937.505 1157.68 938.689 1159.4 C 938.689 1159.41 931.837 1179.24 931.105 1182.02 C 926.928 1180.69 922.445 1181.08 924.085 1176.57 C 926.569 1169.84 928.851 1163.04 930.929 1156.17 z" fill="rgb(110,110,114)" transform="translate(0,0)"></path>
<path d="M 1178.09 1060.46 C 1182.16 1061.05 1184.46 1060.34 1184.83 1065.01 C 1185.19 1069.53 1190.95 1082.6 1188.82 1085.94 L 1188.23 1086.95 C 1184.13 1086.2 1181.38 1086.58 1181.2 1082.02 C 1180.93 1074.99 1173.36 1065.83 1178.09 1060.46 z" fill="rgb(110,110,114)" transform="translate(0,0)"></path>
<path d="M 1095.92 1132.97 C 1096.89 1132.98 1097.85 1132.97 1098.82 1132.96 C 1101.6 1132.89 1103.98 1132.04 1104.05 1135.4 C 1104.2 1142.48 1106.47 1150.93 1105.66 1157.92 C 1104.98 1157.94 1098.92 1158.57 1098.67 1157.45 C 1096.93 1149.87 1096.72 1140.94 1095.92 1132.97 z" fill="rgb(110,110,114)" transform="translate(0,0)"></path>
<path d="M 1163.78 1090.61 C 1165.84 1091.19 1166.68 1091.6 1166.99 1093.96 C 1167.35 1098.22 1168.62 1102.77 1168.92 1107 C 1169.5 1115.51 1171.89 1114.51 1164.3 1117.33 C 1160.12 1113.79 1161.3 1100.22 1158.2 1094.56 C 1157.78 1093.8 1163.08 1091.03 1163.78 1090.61 z" fill="rgb(110,110,114)" transform="translate(0,0)"></path>
<path d="M 793.841 1046.43 C 796.092 1047.5 799.356 1049.96 801.354 1051.55 C 797.04 1057.21 792.539 1062.72 787.858 1068.08 C 785.138 1067.07 782.786 1064.38 780.704 1062.27 C 785.97 1056.41 789.047 1052.86 793.841 1046.43 z" fill="rgb(110,110,114)" transform="translate(0,0)"></path>
<path d="M 913.581 1184.98 C 914.59 1185.24 920.643 1186.36 920.795 1186.54 C 921.019 1187.75 915.367 1207.03 914.516 1210.73 C 905.004 1207.41 906.471 1209.12 909.258 1199.19 C 910.582 1194.47 912.254 1189.68 913.581 1184.98 z" fill="rgb(110,110,114)" transform="translate(0,0)"></path>
<path d="M 1162.16 1128.24 C 1170.09 1131.76 1165.28 1145.15 1167.83 1153.01 C 1168.08 1153.76 1166.36 1155.08 1165.84 1155.49 L 1164.76 1156.39 C 1156.31 1150.46 1160.21 1141.26 1158.2 1131.62 C 1158.01 1130.71 1161.66 1128.56 1162.16 1128.24 z" fill="rgb(110,110,114)" transform="translate(0,0)"></path>
<path d="M 855.519 1157.58 C 863.943 1161.89 861.4 1159.9 857.681 1169.49 C 856.067 1173.65 853.941 1178.86 851.486 1182.56 C 851.468 1182.55 849.518 1181.75 849.499 1181.76 C 849.207 1181.88 846.71 1180.66 846.356 1180.57 C 845.774 1180.43 844.363 1178.98 844.481 1178.58 C 845.911 1173.7 853.343 1161.66 855.519 1157.58 z" fill="rgb(110,110,114)" transform="translate(0,0)"></path>
<path d="M 800.084 1101.61 C 805.338 1107.2 807.08 1106.47 801.814 1112.92 C 798.501 1116.97 795.735 1121.55 792.627 1125.72 L 790.072 1124.34 C 788.577 1123.55 786.646 1122.89 785.898 1121.4 C 786.026 1120.18 798.304 1104.09 800.084 1101.61 z" fill="rgb(110,110,114)" transform="translate(0,0)"></path>
<path d="M 1192.82 1098.62 C 1196.46 1098.9 1195.68 1099.37 1196.33 1102.96 C 1197.42 1109.05 1198.95 1114.97 1200.62 1120.86 C 1200.81 1121.54 1195.73 1123.8 1195.16 1124.1 C 1193.48 1123.08 1192.44 1121.54 1192.14 1119 C 1191.69 1115.11 1187.94 1105.58 1187.39 1102.39 C 1187.27 1101.66 1191.32 1099.56 1192.02 1099.13 L 1192.82 1098.62 z" fill="rgb(110,110,114)" transform="translate(0,0)"></path>
<path d="M 728.808 1004.65 C 739.872 1012.5 723.762 1020.46 716.903 1026.45 C 715.533 1024.98 712.475 1022.25 712.193 1020.32 C 711.876 1020.99 727.311 1006.21 728.808 1004.65 z" fill="rgb(110,110,114)" transform="translate(0,0)"></path>
<path d="M 742.973 978.701 C 746.65 979.3 750.838 984.371 746.746 986.606 C 741.489 989.479 736.382 993.324 731.462 996.732 C 727.429 997.47 726.569 991.74 726.701 991.541 C 729.247 987.699 738.822 981.594 742.973 978.701 z" fill="rgb(110,110,114)" transform="translate(0,0)"></path>
<path d="M 958.242 1153.88 C 969.434 1154.39 965.081 1154.64 963.252 1166.03 C 962.564 1170.31 961.13 1174.88 960.255 1179.21 C 957.667 1178.65 952.395 1177.58 953.33 1174.58 C 955.421 1167.87 956.852 1160.74 958.242 1153.88 z" fill="rgb(110,110,114)" transform="translate(0,0)"></path>
<path d="M 1239.36 1036.76 C 1243.94 1039.41 1248.23 1052.18 1249.61 1057.36 C 1249.81 1058.11 1247.38 1059.8 1246.97 1060.09 L 1245.48 1061.2 C 1239.8 1059.38 1238.5 1047.18 1234.8 1042.12 C 1234.32 1041.48 1238.79 1037.35 1239.36 1036.76 z" fill="rgb(110,110,114)" transform="translate(0,0)"></path>
<path d="M 764.678 1012.07 C 767.339 1014.71 770.854 1017.35 767.437 1020.39 L 755.014 1031.28 C 752.459 1029.01 750.612 1027.26 748.174 1024.81 C 753.459 1020.58 759.19 1016.01 764.678 1012.07 z" fill="rgb(110,110,114)" transform="translate(0,0)"></path>
<path d="M 1096.82 1173.68 C 1097.76 1173.75 1104.25 1173.74 1104.39 1174.71 C 1105.23 1180.63 1106.65 1192.3 1105.51 1197.82 C 1104.05 1197.72 1099.78 1197.69 1099.56 1196.92 C 1098.38 1192.76 1097.09 1177.34 1096.82 1173.68 z" fill="rgb(110,110,114)" transform="translate(0,0)"></path>
<path d="M 1064.82 1186.84 C 1066.36 1186.92 1071.7 1186.91 1071.91 1187.42 C 1072.7 1189.32 1073.01 1208.53 1073.07 1210.19 C 1071.47 1210.19 1066.46 1210.56 1066.21 1209.74 C 1065.12 1206.16 1064.8 1189.43 1064.82 1186.84 z" fill="rgb(110,110,114)" transform="translate(0,0)"></path>
<path d="M 1008.02 1160.61 C 1015.4 1161.24 1016.05 1159.62 1015.46 1166.89 C 1015.04 1172.09 1015.19 1178.25 1015.21 1183.5 C 1007.08 1183.68 1007.67 1184.2 1007.72 1175.75 C 1007.75 1170.72 1007.88 1165.64 1008.02 1160.61 z" fill="rgb(110,110,114)" transform="translate(0,0)"></path>
<path d="M 1135.4 1156.3 C 1139.84 1158.43 1143.29 1178.22 1138.94 1181.16 L 1137.33 1182.29 C 1130.27 1177.87 1134.68 1167.35 1131.44 1159.54 C 1131.2 1158.97 1133.73 1157.36 1134.05 1157.16 L 1135.4 1156.3 z" fill="rgb(110,110,114)" transform="translate(0,0)"></path>
<path d="M 1640.84 1202.89 L 1641.15 1205.07 L 1501.76 1378.7 C 1485.03 1399.24 1463.36 1428.54 1446.33 1447.54 C 1445.11 1452.09 1445.43 1457.65 1445.48 1462.39 C 1446.07 1514.07 1443.15 1567.85 1446.07 1619.38 C 1445.27 1628.07 1446.04 1638.59 1445.92 1647.53 C 1445.69 1664.21 1445.44 1674.58 1457.21 1687.34 C 1474.91 1689.83 1540.42 1696.98 1547.98 1718.64 C 1553.15 1733.47 1514.01 1743.8 1502 1746.25 C 1461.24 1754.5 1419.71 1755.73 1378.36 1750.93 C 1369.02 1749.85 1287.39 1737.05 1311.08 1713.15 C 1328.06 1696.02 1375.52 1688.49 1399.54 1687.98 C 1401.91 1684.09 1408.93 1673.06 1409.09 1669.4 C 1412.27 1597.05 1409.9 1520.75 1411.05 1448.73 C 1407.02 1443.16 1401.39 1437.19 1396.92 1431.84 C 1373.89 1404.28 1350.49 1377.11 1326.41 1350.45 C 1282.91 1302.28 1241.56 1250.15 1197 1203.15 L 1484.14 1203.2 C 1483.78 1205.12 1483.51 1207.06 1483.33 1209.01 C 1481.66 1226.81 1486.18 1241.37 1497.95 1254.91 C 1488.09 1271.73 1478.05 1287.92 1467.26 1304.14 C 1462.21 1311.72 1454.01 1323.47 1451.69 1331.89 C 1452.56 1336.86 1455.66 1339.37 1460.59 1338.34 C 1468.12 1332.24 1503.9 1274.22 1511 1262.55 C 1550.21 1273.96 1584.39 1240.87 1590.86 1203.41 C 1606.92 1202.75 1624.48 1203.21 1640.84 1202.89 z" fill="rgb(244,201,93)" transform="translate(0,0)"></path>
<path d="M 1560.23 1272.57 C 1563.04 1272.75 1562.98 1273 1565.45 1274.5 C 1565.51 1275.16 1565.56 1275.83 1565.62 1276.49 C 1558.14 1285.33 1534.54 1313.78 1528.78 1320.7 C 1509.15 1344.29 1490.59 1366.54 1471.46 1389.43 C 1467.48 1388.12 1468.65 1389.34 1466.74 1386.59 C 1472.5 1377.25 1490.55 1357.03 1497.89 1348.19 C 1518.62 1323.21 1540.61 1298.45 1560.23 1272.57 z" fill="rgb(22,24,29)" transform="translate(0,0)"></path>
<path d="M 1117.92 1209.98 L 1118.65 1210.7 C 1120.13 1216.72 1119.74 1258 1119.72 1265.98 C 1094.12 1293.14 1054.32 1310.23 1017.64 1314.53 C 966.165 1320.57 918.535 1310.08 877.424 1277.87 C 873.501 1274.68 868.725 1270.13 864.882 1266.65 C 864.912 1247.98 865.244 1229.3 865.876 1210.64 C 877.293 1215.97 888.95 1220.78 900.811 1225.03 C 978.729 1252.61 1044.88 1244.94 1117.92 1209.98 z" fill="rgb(242,213,190)" transform="translate(0,0)"></path>
<path d="M 1548.4 1155.29 C 1554.04 1154.93 1558.72 1155.42 1564.32 1155.83 C 1558.75 1163.22 1548.31 1175.2 1554.37 1184.92 C 1563.83 1188.83 1571.26 1172.85 1574.88 1166.54 C 1593.12 1189.51 1584.76 1226.36 1563.26 1244.32 C 1559.42 1247.53 1555.72 1249.76 1551.41 1252.27 C 1478.13 1286.04 1460.13 1168.3 1548.4 1155.29 z" fill="rgb(136,176,75)" transform="translate(0,0)"></path>
<path d="M 1609.21 1079.47 C 1616.89 1076.94 1625.17 1081.12 1627.7 1088.8 C 1630.22 1096.48 1626.04 1104.76 1618.36 1107.29 C 1610.68 1109.81 1602.41 1105.63 1599.88 1097.95 C 1597.36 1090.28 1601.53 1082 1609.21 1079.47 z" fill="rgb(228,106,82)" transform="translate(0,0)"></path>
<path d="M 1502.71 1258.39 C 1502.98 1258.52 1505.46 1259.61 1504.94 1260.43 C 1490.48 1283.08 1475.86 1310.98 1459.9 1332.33 C 1455.57 1331.01 1461.82 1323.76 1463.43 1321.27 C 1476.86 1300.5 1489.66 1279.38 1502.71 1258.39 z" fill="rgb(242,213,190)" transform="translate(0,0)"></path>
<path d="M 1600.77 1109.9 C 1603.45 1113.75 1564.43 1172.62 1559.39 1180.22 C 1559.12 1179.87 1557.9 1178.38 1558.11 1178.02 C 1566.08 1164.15 1592.49 1120.35 1600.77 1109.9 z" fill="rgb(242,213,190)" transform="translate(0,0)"></path>
<metadata><recraft-signature>{"signed_by": "recraft", "signature_b64": "97ba5Vb4619+tmNzO3EH5aCAWZmiJxIj1kijIiP4jxHQM0s8q2WWuffNLcI7J3uasEnsT+dorv371F3eCltADw==", "signing_algo": "Ed25519", "generation_timestamp": 1782520647, "identifier": "71cd8307-3d59-489e-b6a5-00316565b377"}</recraft-signature></metadata></svg>